<svg width="925" height="491" viewBox="0 0 925 491" fill="none" xmlns="http://www.w3.org/2000/svg">
<path d="M714.892 470.54C708.261 479.139 700.47 485.529 702.178 488.433C702.178 488.433 705.707 491 715.448 491C732.149 491 748.558 489.728 745.861 488.035C742.128 485.691 731.317 484.843 720.985 481.267C718.431 480.382 726.572 475.436 724.349 474.628C719.748 472.951 716.163 471.502 714.892 470.54Z" fill="#A62325"/>
<path d="M886.946 487.921C886.946 487.921 889.14 490.999 897.561 490.999C912 490.999 927.05 489.039 924.721 487.574C921.492 485.55 896.184 480.268 896.184 480.268L890.509 473.221L880.885 478.546L886.946 487.921Z" fill="#A62325"/>
<path d="M841.203 275.127C830.847 275.127 823.016 273.058 822.361 272.881C816.96 271.405 813.775 265.834 815.248 260.432C816.719 255.036 822.271 251.859 827.668 253.308C828.023 253.401 850.822 259.242 864.131 247.824C873.038 240.176 876.424 225.778 874.19 205.021L873.478 198.401L893.98 186.784C898.86 184.024 905.043 185.735 907.801 190.607C910.561 195.479 908.85 201.668 903.978 204.425L894.912 209.562C896.346 234.009 890.406 252.071 877.218 263.312C866.1 272.783 852.223 275.127 841.203 275.127Z" fill="white"/>
<path d="M876.292 218.864C875.905 233.61 871.99 244.281 864.556 250.655C849.956 263.185 824.953 256.795 824.524 256.682C818.598 255.081 812.502 258.581 810.889 264.499C809.273 270.428 812.767 276.551 818.696 278.169C819.416 278.36 828.024 282.654 839.383 282.252C882.523 280.72 908.559 243.507 909.041 221.813L876.292 218.864Z" fill="#E1F3F6"/>
<path d="M816.974 167.261C813.109 165.529 809.31 163.653 805.569 161.685C769.824 182.041 724.154 208.12 723.248 209.028C723.248 209.028 745.946 245.171 747.398 246.62C748.331 247.553 804.615 207.177 845.106 177.921C835.765 174.305 826.132 171.367 816.974 167.261Z" fill="#A62325"/>
<path d="M817.557 166.222C826.916 170.352 836.75 173.348 846.266 177.089C868.559 160.979 885.792 148.44 885.792 148.44L847.688 137.732C847.688 137.732 829.353 148.141 806.764 161.003C810.308 162.852 813.898 164.606 817.557 166.222Z" fill="#FB8394"/>
<path d="M751.875 118.776L774.308 179.509L818.163 195.603L762.612 94.1279L751.875 118.776Z" fill="#EF5350"/>
<path d="M820.547 210.521H788.055L816.976 261.042L861.061 279.628L820.547 210.521Z" fill="#EF5350"/>
<path d="M861.064 279.627L835.197 235.501L724.54 300.375L702.779 263.255L716.444 42.5659L766.172 13.4141L855.675 166.093L885.791 148.438L910.837 191.159L880.721 208.814L906.587 252.936L861.064 279.627ZM760.678 108.388L757.877 110.03L750.271 227.885L810.151 192.781L760.678 108.388Z" fill="#B9494B"/>
<path d="M665.996 253.157L702.783 263.256L724.543 300.377L685.674 290.529L665.996 253.157Z" fill="#A62325"/>
<path d="M665.996 253.157L702.783 263.255L716.447 42.5667L682.697 34.4893L665.996 253.157Z" fill="#FB8394"/>
<path d="M682.695 34.49L716.446 42.5674L766.174 13.4156L731.994 3.47852L682.695 34.49Z" fill="#9D2123"/>
<path d="M756.701 341.098C756.701 341.098 762.108 399.417 762.108 419.845C762.108 419.845 719.644 452.944 709.246 470.257C713.713 473.655 722.54 478.167 728.32 477.992C756.653 450.936 787.755 431.626 787.755 431.626C787.755 431.626 801.171 392.709 805.348 359.761L756.701 341.098Z" fill="#A62325"/>
<path d="M786.968 343.849C796.529 343.916 806.302 342.271 814.525 337.807C811.765 326.161 817.646 291.798 825.029 273.434C825.029 273.434 830.852 260.649 826.77 256.72C811.664 242.192 798.808 243.381 794.81 243.22C780.944 254.924 755.141 289.467 756.177 335.118C763.306 342.607 777.778 343.789 786.968 343.849Z" fill="#E1F3F6"/>
<path d="M880.641 480.148C886.17 478.611 891.471 476.055 894.873 471.532C878.477 444.937 818.346 347.253 815.09 339.605C815.008 339.409 814.931 339.181 814.854 338.959C806.024 343.719 795.488 345.396 785.273 345.002C776.377 344.66 763.497 343.412 756.232 336.826C756.251 337.298 756.254 337.764 756.277 338.238C757.533 363.737 842.114 448.755 875.401 481.263C877.232 480.998 879.009 480.598 880.641 480.148Z" fill="#EB7092"/>
<path d="M706.038 317.409C703.688 317.409 701.434 317.073 699.277 316.35C694.805 314.855 688.89 311.088 686.095 301.66C684.503 296.29 687.565 290.644 692.935 289.055C698.302 287.46 703.942 290.531 705.535 295.895C705.723 296.52 705.898 296.92 706.022 297.154C707.103 297.201 711.119 296.849 720.892 291.105C729.624 285.979 739.953 278.336 749.943 270.948C766.821 258.457 782.764 246.665 795.928 242.501C801.263 240.808 806.962 243.772 808.652 249.108C810.342 254.449 807.383 260.144 802.048 261.832C792.105 264.979 776.803 276.304 762.002 287.248C740.337 303.273 721.231 317.409 706.038 317.409Z" fill="white"/>
<path d="M725.006 309.827C723.764 303.856 722.463 297.265 718.683 292.359C710.51 296.886 707.018 297.191 706.022 297.151C705.898 296.918 705.725 296.521 705.535 295.893C703.943 290.528 698.305 287.458 692.935 289.052C687.565 290.642 684.503 296.285 686.095 301.657C688.89 311.086 694.805 314.85 699.277 316.347C701.434 317.07 703.688 317.407 706.038 317.407C711.93 317.407 718.41 315.274 725.401 311.735C725.266 311.102 725.136 310.466 725.006 309.827Z" fill="white"/>
<path d="M808.649 249.103C806.959 243.767 801.261 240.803 795.925 242.496C782.759 246.66 766.819 258.452 749.941 270.943C739.95 278.331 729.621 285.974 720.889 291.101C720.492 291.339 720.116 291.546 719.734 291.763C723.525 296.772 730.085 321.474 730.201 322.038C740.952 316.414 792.518 277.158 803.698 265.308C807.545 261.239 810.34 254.444 808.649 249.103Z" fill="#E1F3F6"/>
<path d="M691.696 309.218C691.095 309.218 690.49 309.038 689.966 308.664C682.01 302.979 677.862 292.035 677.687 291.574C677.112 290.032 677.894 288.316 679.438 287.736C680.977 287.166 682.696 287.942 683.271 289.484C683.311 289.582 686.975 299.201 693.431 303.811C694.772 304.767 695.082 306.63 694.125 307.965C693.545 308.783 692.628 309.218 691.696 309.218Z" fill="white"/>
<path d="M691.701 301.951C690.764 301.951 689.844 301.511 689.264 300.687C685.457 295.296 682.408 282.485 682.072 281.046C681.701 279.443 682.697 277.838 684.302 277.464C685.91 277.08 687.51 278.09 687.884 279.695C688.724 283.301 691.482 293.484 694.133 297.246C695.084 298.592 694.764 300.454 693.418 301.4C692.899 301.773 692.297 301.951 691.701 301.951Z" fill="white"/>
<path d="M695.818 300.273C694.642 300.273 693.526 299.574 693.055 298.416C690.323 291.722 689.256 277.678 689.213 277.082C689.092 275.442 690.323 274.014 691.966 273.89C693.616 273.755 695.036 275.002 695.161 276.642C695.439 280.436 696.605 291.332 698.576 296.164C699.198 297.69 698.467 299.428 696.944 300.051C696.573 300.202 696.194 300.273 695.818 300.273Z" fill="white"/>
<path d="M700.291 298.834C698.961 298.834 697.753 297.944 697.403 296.598C695.528 289.313 697.236 281.882 697.313 281.572C697.692 279.969 699.303 278.979 700.9 279.352C702.5 279.731 703.494 281.334 703.12 282.937C703.088 283.077 701.692 289.321 703.181 295.107C703.592 296.704 702.63 298.331 701.035 298.739C700.786 298.808 700.535 298.834 700.291 298.834Z" fill="white"/>
<path d="M820.176 265.311C818.809 265.311 817.424 265.017 816.107 264.395C811.341 262.143 809.306 256.452 811.558 251.692C813.913 246.709 818.163 241.606 818.642 241.037C822.044 237.01 828.06 236.504 832.087 239.903C836.114 243.297 836.625 249.31 833.237 253.34C832.042 254.757 829.785 257.78 828.812 259.843C827.181 263.293 823.75 265.311 820.176 265.311Z" fill="white"/>
<path d="M821.549 260.4C822.677 261.648 823.861 262.821 825.093 263.939C826.656 263.004 827.97 261.616 828.807 259.846C829.78 257.783 832.037 254.76 833.232 253.343C836.62 249.313 836.109 243.3 832.082 239.906C828.052 236.507 822.039 237.013 818.637 241.04C818.449 241.268 817.673 242.2 816.658 243.543C816.746 249.554 817.376 255.801 821.549 260.4Z" fill="#B9494B"/>
<path d="M852.887 249.871C849.088 259.083 838.547 263.475 829.333 259.676C820.122 255.877 815.732 245.333 819.531 236.117L824.305 224.542C828.104 215.326 838.65 210.939 847.862 214.738C857.073 218.537 861.46 229.08 857.661 238.292L852.887 249.871Z" fill="white"/>
<path d="M821.546 234.77C820.079 240.969 811.175 238.982 807.831 235.742C803.224 231.287 800.475 218.679 810.682 219.352C803.33 208.252 828.27 196.214 830.887 209.041C832.834 205.732 834.827 202.76 839.166 202.479C842.289 202.28 847.757 204.697 847.304 208.522C851.943 204.856 858.699 205.142 863.287 208.845C864.755 210.032 867.401 212.671 866.077 214.594C865.348 215.654 861.591 215.979 860.333 216.364C862.503 215.381 871.391 217.362 869.642 221.055C868.826 222.777 864.479 221.23 863.205 220.865C863.205 220.865 863.192 221.267 863.205 221.251C867.952 223.853 869.907 226.494 869.338 232.402C869.075 235.117 867.791 240.251 864.559 240.638C862.903 240.834 860.99 239.79 861.019 238.055C864.985 242.013 859.369 252.61 854.359 247.386C852.396 245.338 853.342 241.902 855.204 240.132C852.242 238.429 845.815 229.422 850.388 227.011C848.25 227.064 838.355 223.705 841.503 220.859C842.334 224.16 838.247 228.433 834.994 226.738C837.018 231.141 831.067 234.426 827.412 234.582C829.65 237.398 822.752 240.739 820.645 236.656L821.546 234.77Z" fill="#EB7092"/>
<path d="M482.591 198.764C482.591 198.764 476.8 176.599 505.526 171.332L503.337 197.967L482.591 198.764Z" fill="#9F2224"/>
<path d="M367.49 254.734C361.201 254.734 355.354 253.463 349.963 250.912C323.868 238.582 320.97 201.539 320.861 199.968C320.469 194.38 324.679 189.532 330.263 189.14C335.84 188.751 340.68 192.942 341.085 198.518C341.652 205.971 345.912 226.608 358.671 232.6C369.206 237.546 385.547 232.513 405.93 218.035C410.494 214.79 416.823 215.868 420.066 220.43C423.308 225 422.233 231.326 417.668 234.571C398.761 247.995 381.962 254.734 367.49 254.734Z" fill="#CDE5E8"/>
<path d="M421.443 273.76C424.262 266.361 426.876 258.848 429.92 251.531C427.867 251.372 425.798 251.107 423.697 250.71C413.861 248.831 405.534 244.831 398.715 238.706C391.891 232.584 386.624 224.824 382.908 215.438C379.191 206.05 377.029 195.376 376.425 183.412C375.816 171.454 376.783 158.828 379.321 145.531C381.909 131.975 385.679 119.818 390.627 109.052C395.576 98.2882 401.508 89.2253 408.425 81.8685C415.336 74.5117 423.093 69.2451 431.693 66.066C440.286 62.8896 449.506 62.2353 459.342 64.1136C467.128 65.6024 473.987 68.5377 479.956 72.8718C482.83 67.1363 485.919 61.5068 488.86 55.8905C492.333 49.2489 495.559 42.4829 498.648 35.6586C499.968 32.7391 501.112 29.7349 502.309 26.7546C492.341 21.0721 481.169 17.04 468.787 14.6716C451.241 11.3204 434.726 11.9562 419.244 16.5737C403.754 21.1966 389.817 28.9296 377.411 39.7833C365.004 50.6397 354.479 64.2672 345.84 80.6552C337.193 97.051 330.949 115.354 327.092 135.552C323.232 155.755 322.289 175.07 324.286 193.495C326.273 211.92 331.036 228.462 338.568 243.125C346.1 257.788 356.204 270.123 368.901 280.121C380.719 289.436 394.644 295.863 410.674 299.41C414.47 290.946 418.142 282.436 421.443 273.76Z" fill="#FB8394"/>
<path d="M558.756 121.332C556.762 102.909 552.004 86.3623 544.475 71.699C536.943 57.0357 526.831 44.7063 514.144 34.703C510.726 32.0114 507.126 29.5688 503.362 27.3594C502.175 30.3371 501.038 33.3386 499.695 36.2448C496.548 43.0453 493.393 49.8352 489.906 56.4741C486.937 62.1248 483.819 67.7941 480.928 73.572C481.956 74.3561 482.96 75.1721 483.93 76.041C490.746 82.1686 496.082 89.9361 499.931 99.3487C503.78 108.761 506.024 119.385 506.657 131.216C507.288 143.047 506.31 155.737 503.725 169.293C501.187 182.586 497.427 194.683 492.455 205.574C487.48 216.472 481.466 225.583 474.417 232.916C467.367 240.249 459.547 245.51 450.953 248.681C444.613 251.026 438.014 251.998 431.155 251.619C427.783 259.622 424.94 267.867 421.864 275.968C418.821 283.982 415.398 291.842 411.877 299.66C412.669 299.827 413.459 299.991 414.256 300.147C431.796 303.501 448.309 302.863 463.793 298.242C479.275 293.627 493.221 285.892 505.627 275.035C518.036 264.179 528.553 250.557 537.197 234.158C545.839 217.77 552.091 199.47 555.951 179.267C559.811 159.075 560.743 139.757 558.756 121.332Z" fill="#EF5350"/>
<path d="M445.235 310.679C427.692 307.325 412.574 300.647 399.884 290.649C387.186 280.653 377.082 268.316 369.553 253.653C362.019 238.989 357.258 222.448 355.269 204.02C353.274 185.6 354.217 166.285 358.074 146.079C361.931 125.882 368.176 107.581 376.825 91.1854C385.464 74.7949 395.99 61.1647 408.396 50.311C420.802 39.4572 434.739 31.7216 450.229 27.1014C465.711 22.4838 482.224 21.8507 499.769 25.2019C517.31 28.5531 532.423 35.2291 545.118 45.2298C557.81 55.2358 567.92 67.5625 575.451 82.2258C582.986 96.8892 587.738 113.436 589.736 131.859C591.723 150.286 590.79 169.602 586.93 189.799C583.071 210.002 576.821 228.3 568.179 244.691C559.532 261.089 549.015 274.711 536.609 285.568C524.203 296.424 510.257 304.16 494.775 308.775C479.288 313.389 462.778 314.031 445.235 310.679ZM454.682 261.24C464.251 263.065 473.33 262.395 481.929 259.211C490.523 256.04 498.347 250.776 505.396 243.445C512.44 236.112 518.457 227.002 523.432 216.106C528.407 205.212 532.163 193.119 534.701 179.825C537.292 166.266 538.27 153.579 537.637 141.745C537.006 129.917 534.76 119.291 530.916 109.881C527.064 100.466 521.726 92.7008 514.912 86.5732C508.088 80.4509 499.896 76.4718 490.33 74.6439C480.491 72.7629 471.274 73.4199 462.683 76.5937C454.081 79.7754 446.327 85.0393 439.413 92.3988C432.495 99.7556 426.564 108.819 421.618 119.582C416.667 130.349 412.899 142.503 410.308 156.062C407.768 169.355 406.804 181.984 407.41 193.943C408.017 205.909 410.176 216.577 413.895 225.969C417.61 235.355 422.876 243.117 429.701 249.237C436.514 255.361 444.843 259.362 454.682 261.24Z" fill="#B9494B"/>
<path d="M624.089 161.797L624.863 199.068C624.863 199.068 614.218 208.608 604.684 199.068L608.199 157.092L624.089 161.797Z" fill="#EB7092"/>
<path d="M580.185 459.122C579.578 458.64 575.422 456.706 574.847 456.224C572.616 459.567 571.056 461.408 568.375 464.182C574.945 469.909 573.257 476.869 573.257 476.869C573.257 476.869 568.608 480.869 566.791 481.77C560.992 484.626 550.297 488.594 550.297 488.594L577.231 490.706L597.209 470.24C590.128 466.288 584.699 462.693 580.185 459.122Z" fill="#A62325"/>
<path d="M474.658 460.581C470.368 459.831 464.953 463.116 461.465 460.581C460.654 468.073 460.81 472.161 460.81 472.161L420.961 488.594H471.852C472.31 483.171 471.338 477.965 472.069 472.942C472.44 470.359 474.189 463.069 474.658 460.581Z" fill="#A62325"/>
<path d="M521.046 279.716L476.018 365.277C476.018 365.277 494.263 380.711 512.227 385.856L545.983 285.046L521.046 279.716Z" fill="#CDE5E8"/>
<path d="M570.353 466.324C573.056 463.561 575.284 460.266 577.506 456.917C565.858 446.935 560.159 436.651 544.333 418.949C537.784 411.621 555.131 369.668 559.343 362.632C566.909 349.988 568.08 340.819 573.996 319.175L530.019 335.602C519.552 373.099 507.355 410.604 519.584 428.491C532.504 447.404 555.433 462.637 566.499 470.243C566.92 470.529 569.985 466.044 570.353 466.324Z" fill="#A62325"/>
<path d="M496.308 194.363C495.704 194.363 495.1 194.183 494.573 193.804C493.235 192.845 492.93 190.98 493.889 189.645C497.431 184.709 498.21 180.648 498.218 180.606C498.515 178.995 500.054 177.914 501.678 178.2C503.291 178.489 504.372 180.018 504.094 181.634C504.054 181.848 503.132 186.996 498.737 193.118C498.152 193.931 497.235 194.363 496.308 194.363Z" fill="white"/>
<path d="M570.872 328.24C583.961 292.301 595.138 235.902 599.324 213.392C596.985 212.419 594.691 211.688 592.868 211.182C588.984 210.112 584.33 208.848 580.348 210.085C578.327 210.716 576.528 211.757 574.763 212.864C573.131 217.749 572.459 221.866 572.459 221.866C572.459 221.866 544.343 275.616 526.023 312.27C541.582 315.759 556.796 320.869 570.872 328.24Z" fill="#F6EE9E"/>
<path d="M525.498 313.375C525.49 313.37 525.485 313.37 525.477 313.364C523.855 316.615 522.314 319.722 520.883 322.636H520.87C517.267 329.021 513.383 334.926 509.621 340.595C473.441 395.148 459.779 438.626 457.363 459.202C460.818 461.899 473.881 463.425 478.236 464.18C484.912 430.072 502.28 408.298 533.4 382.572C543.814 373.962 551.603 363.023 558.449 353.942C562.528 348.53 566.576 339.854 570.463 329.344C556.361 321.956 541.086 316.853 525.498 313.375Z" fill="#EB7092"/>
<path d="M490.385 328.377C486.184 328.377 482.258 325.749 480.806 321.558C478.973 316.265 481.773 310.49 487.063 308.659C499.366 304.396 518.231 287.579 530.95 269.541C556.764 232.94 574.887 212.644 575.647 211.796C579.385 207.629 585.796 207.279 589.963 211.02C594.128 214.755 594.478 221.167 590.74 225.331C590.562 225.532 572.582 245.687 547.518 281.224C534.964 299.029 512.763 321.205 493.702 327.813C492.608 328.197 491.488 328.377 490.385 328.377Z" fill="white"/>
<path d="M592.209 216.752C591.975 216.752 591.74 216.741 591.501 216.725C586.248 216.338 582.298 211.769 582.682 206.51C583.085 201.016 585.212 194.724 585.456 194.022C587.175 189.041 592.606 186.397 597.589 188.117C602.567 189.833 605.211 195.259 603.497 200.239C602.895 201.993 601.881 205.625 601.714 207.901C601.348 212.921 597.163 216.746 592.209 216.752Z" fill="white"/>
<path d="M594.998 206.685C596.686 208.624 598.527 210.348 600.477 211.927C601.163 210.727 601.603 209.368 601.711 207.901C601.878 205.628 602.893 201.995 603.494 200.239C605.208 195.259 602.562 189.833 597.586 188.116C593.454 186.688 589.022 188.273 586.643 191.693C587.522 197.081 591.922 203.153 594.998 206.685Z" fill="#B9494B"/>
<path d="M619.583 186.027C619.361 195.986 611.106 203.88 601.142 203.658C591.181 203.433 583.289 195.178 583.514 185.217L583.793 172.697C584.015 162.733 592.273 154.841 602.234 155.066C612.195 155.291 620.087 163.544 619.864 173.507L619.583 186.027Z" fill="white"/>
<path d="M476.07 325.581C471.911 325.581 467.151 324.463 461.823 322.222C460.308 321.586 459.592 319.837 460.228 318.319C460.867 316.799 462.613 316.083 464.133 316.722C471.983 320.023 478.23 320.494 482.206 318.089C483.618 317.236 485.449 317.691 486.302 319.098C487.152 320.505 486.702 322.338 485.292 323.191C482.659 324.783 479.578 325.581 476.07 325.581Z" fill="white"/>
<path d="M479.641 329.914C474.896 329.914 471.09 328.992 466.758 327.943L465.415 327.623C463.812 327.238 462.824 325.63 463.211 324.028C463.592 322.43 465.203 321.431 466.806 321.824L468.162 322.149C475.394 323.898 480.174 325.058 490.747 322.324C492.349 321.916 493.968 322.873 494.379 324.467C494.789 326.065 493.83 327.692 492.235 328.105C487.141 329.419 483.138 329.914 479.641 329.914Z" fill="white"/>
<path d="M475.867 319.708C466.507 319.708 460.094 313.948 459.773 313.654C458.56 312.542 458.478 310.658 459.59 309.442C460.7 308.232 462.579 308.149 463.795 309.251C464.091 309.522 470.95 315.565 480.177 313.188C481.78 312.775 483.399 313.737 483.809 315.331C484.22 316.926 483.261 318.555 481.663 318.963C479.637 319.485 477.692 319.708 475.867 319.708Z" fill="white"/>
<path d="M482.116 316.505C482 316.505 481.883 316.494 481.766 316.483C471.609 315.294 467.479 307.982 467.31 307.672C466.518 306.228 467.045 304.416 468.489 303.622C469.922 302.835 471.726 303.351 472.526 304.782C472.666 305.026 475.483 309.744 482.458 310.563C484.095 310.753 485.266 312.234 485.073 313.869C484.898 315.381 483.61 316.505 482.116 316.505Z" fill="white"/>
<path d="M517.75 198.667C517.588 198.667 517.427 198.654 517.26 198.624C512.324 197.806 498.822 195.684 495.682 195.684C494.034 195.684 492.699 194.349 492.699 192.701C492.699 191.056 494.034 189.718 495.682 189.718C499.879 189.718 516.367 192.431 518.232 192.743C519.856 193.013 520.958 194.547 520.688 196.171C520.45 197.628 519.183 198.667 517.75 198.667Z" fill="white"/>
<path d="M515.844 204.926C515.584 204.926 515.319 204.891 515.057 204.82C514.914 204.78 500.736 200.92 494.139 200.546C492.494 200.454 491.238 199.044 491.331 197.399C491.424 195.754 492.844 194.459 494.478 194.594C501.703 195.004 516.027 198.904 516.631 199.068C518.22 199.503 519.153 201.14 518.718 202.729C518.358 204.057 517.155 204.926 515.844 204.926Z" fill="white"/>
<path d="M514.407 211.482C514.102 211.482 513.792 211.435 513.49 211.342C500.064 207.008 496.755 206.74 494.977 206.6C494.206 206.539 493.483 206.478 492.492 206.216C490.9 205.795 489.952 204.165 490.37 202.571C490.794 200.978 492.424 200.033 494.018 200.449C494.493 200.576 494.834 200.605 495.454 200.653C497.616 200.827 501.235 201.119 515.323 205.665C516.889 206.171 517.75 207.85 517.247 209.419C516.836 210.682 515.665 211.482 514.407 211.482Z" fill="white"/>
<path d="M508.511 216.258C508.442 216.258 508.368 216.252 508.296 216.247C494.849 215.285 494.29 207.984 494.271 207.155L500.235 207.015C500.235 207.015 500.243 206.946 500.219 206.821C500.224 206.853 500.839 209.738 508.723 210.302C510.363 210.416 511.6 211.844 511.483 213.484C511.369 215.058 510.063 216.258 508.511 216.258Z" fill="white"/>
<path d="M497.253 212.681C497.253 212.681 494.664 211.486 490.632 211.486C487.241 211.486 482.632 205.732 482.632 199.761C482.632 199.761 480.976 182.154 499.563 190.118L497.253 212.681Z" fill="white"/>
<path d="M555.784 265.015L529.727 393.305C529.727 393.305 570.079 403.027 594.831 388.772L601.091 210.521C601.091 210.521 573.393 200.827 555.784 265.015Z" fill="#CDE5E8"/>
<path d="M561.811 335.602L586.772 334.262C586.772 334.262 587.37 372.431 572.461 370.943C572.461 370.943 552.057 375.401 561.811 335.602Z" fill="#E1F3F6"/>
<path d="M593.151 207.472C590.412 205.013 586.878 203.662 583.198 203.662C578.968 203.662 574.92 205.466 572.101 208.611C571.338 209.464 553.103 229.857 527.057 266.79C525.35 269.206 523.475 271.675 521.477 274.128L518.828 277.379L521.716 280.42C524.789 283.671 528.016 286.836 531.134 289.893C532.826 291.554 534.517 293.216 536.188 294.892L539.873 298.588L543.225 294.588C546.216 291.022 548.973 287.454 551.426 283.98C576.332 248.661 594.121 228.726 594.301 228.522C599.782 222.405 599.268 212.958 593.151 207.472Z" fill="#E1F3F6"/>
<path d="M524.687 265.866L514.615 277.077L540.854 300.649L550.926 289.437L524.687 265.866Z" fill="#F8FDFF"/>
<path d="M565.406 193.186L588.332 202.172C588.332 202.172 598.081 154.739 590.966 147.626C590.966 147.626 565.406 145.201 565.406 193.186Z" fill="#EB7092"/>
<path d="M592.293 155.883C593.106 157.094 610.893 168.965 624.862 165.68C624.862 165.68 622.475 144.712 589.869 147.735L592.293 155.883Z" fill="#EB7092"/>
<path d="M606.023 178.245C606.023 183.753 601.559 188.214 596.051 188.214C590.546 188.214 586.082 183.753 586.082 178.245C586.082 172.74 590.546 168.276 596.051 168.276C601.559 168.279 606.023 172.74 606.023 178.245Z" stroke="#DDDD67" stroke-width="2.29924" stroke-miterlimit="10"/>
<path d="M628.545 180.201C628.545 184.991 624.664 188.875 619.874 188.875C615.084 188.875 611.203 184.991 611.203 180.201C611.203 175.411 615.087 171.53 619.874 171.53C624.664 171.53 628.545 175.411 628.545 180.201Z" stroke="#DDDD67" stroke-width="2.00014" stroke-miterlimit="10"/>
<path d="M606.023 178.246C606.023 178.246 609.332 176.951 611.303 178.922" stroke="#DDDD67" stroke-width="2.29924" stroke-miterlimit="10"/>
<path d="M315.962 195.709C315.729 195.709 315.496 195.699 315.258 195.68C310.002 195.296 306.052 190.723 306.436 185.467C306.839 179.973 308.966 173.681 309.21 172.982C310.926 168.001 316.36 165.355 321.343 167.077C326.321 168.796 328.965 174.222 327.251 179.199C326.649 180.956 325.635 184.588 325.468 186.863C325.102 191.878 320.916 195.706 315.962 195.709Z" fill="#B9494B"/>
<path d="M310.303 460.523C326.108 467.818 339.076 467.667 340.122 467.818C350.427 449.481 381.468 399.824 353.228 359.072L313.286 337.603C313.286 337.603 353.228 379.277 310.303 460.523Z" fill="#A62325"/>
<path d="M330.974 476.755C330.974 476.755 334.664 469.268 337.544 464.238C335.382 463.973 325.707 463.581 321.733 462.055C318.003 469.671 309.876 480.832 304.135 488.486H357.808L330.974 476.755Z" fill="#A62325"/>
<path d="M397.373 361.459C390.697 348.502 342.217 309.485 337.822 287.075C337.435 285.094 337.101 283.056 336.812 280.969C329.026 285.088 318.917 286.206 310.908 286.614C301.824 287.075 296.394 287.639 287.604 283.361C288.348 297.269 286.086 310.695 294.197 324.786C310.299 352.738 363.802 376.674 369.771 385.909C381.539 404.133 385.611 443.69 389.616 467.822C395.916 467.822 410.852 467.546 416.99 465.369C414.921 452.992 418.283 402.05 397.373 361.459Z" fill="#EB7092"/>
<path d="M414.081 474.586C414.081 474.586 412.34 467.529 411.818 464.238C405.677 466.397 402.103 464.222 395.785 464.238C396.742 470.226 396.034 481.413 396.588 487.978H447.479L414.081 474.586Z" fill="#A62325"/>
<path d="M311.281 293.934C319.033 293.576 335.312 291.42 341.845 284.889C340.507 274.25 335.752 257.134 337.426 243.361C343.103 196.661 320.299 182.662 320.299 182.662C320.299 182.662 309.8 175.321 301.291 184.088C288.464 197.302 275.949 234.663 277.202 289.899C286.045 294.464 301.988 294.358 311.281 293.934Z" fill="#CDE5E8"/>
<path d="M428.226 308.675C427.469 308.675 426.698 308.593 425.927 308.41C389.18 299.882 358.06 277.867 335.928 244.737C319.344 219.916 313.617 197.639 313.378 196.704C312.009 191.273 315.304 185.766 320.733 184.399C326.158 183.029 331.663 186.317 333.038 191.737C333.144 192.142 338.424 212.181 353.172 234.047C372.63 262.889 398.648 281.266 430.507 288.66C435.965 289.924 439.358 295.371 438.092 300.825C437.009 305.509 432.836 308.675 428.226 308.675Z" fill="white"/>
<path d="M405.891 278.216C385.643 268.628 368.407 253.432 354.658 233.044C340.09 211.448 334.824 191.489 334.776 191.298C333.433 186.002 328.68 182.299 323.223 182.299C322.243 182.299 321.257 182.421 320.298 182.664C317.209 183.441 314.608 185.377 312.973 188.111C311.339 190.845 310.867 194.053 311.646 197.142L311.696 197.362C313.264 204.187 319.532 228.191 334.442 250.502C352.287 277.222 376.501 297.221 404.463 308.345C404.675 308.427 404.9 308.469 405.125 308.469C405.478 308.469 405.83 308.366 406.129 308.159C406.619 307.828 406.914 307.275 406.914 306.679V279.829C406.911 279.138 406.514 278.51 405.891 278.216Z" fill="#E1F3F6"/>
<path d="M435.755 309.398C432.505 309.398 429.058 309.035 425.415 308.307C423.799 307.986 422.753 306.413 423.073 304.799C423.397 303.186 424.965 302.134 426.584 302.46C435.464 304.235 442.871 303.588 448.604 300.534C450.058 299.758 451.862 300.311 452.636 301.766C453.409 303.22 452.858 305.024 451.404 305.798C446.9 308.198 441.663 309.398 435.755 309.398Z" fill="white"/>
<path d="M436.181 302.727C434.761 302.727 433.298 302.635 431.815 302.417C430.186 302.179 429.057 300.664 429.295 299.034C429.534 297.405 431.041 296.277 432.676 296.515C442.213 297.911 451.043 292.96 451.133 292.909C452.563 292.096 454.383 292.589 455.199 294.017C456.015 295.445 455.528 297.262 454.103 298.083C453.726 298.293 445.901 302.727 436.181 302.727Z" fill="white"/>
<path d="M433.536 296.857C433.072 296.857 432.598 296.841 432.116 296.809C430.471 296.706 429.223 295.294 429.326 293.649C429.43 292.004 430.847 290.756 432.489 290.859C439.544 291.294 443.248 287.01 443.28 286.968C444.318 285.685 446.199 285.492 447.473 286.533C448.75 287.569 448.949 289.447 447.908 290.724C447.698 290.989 442.819 296.857 433.536 296.857Z" fill="white"/>
<path d="M423.221 291.826C421.576 291.826 420.238 290.491 420.238 288.845C420.238 287.206 421.566 285.87 423.205 285.865C423.473 285.86 429.359 285.725 432.729 280.871C433.67 279.515 435.527 279.184 436.878 280.122C438.232 281.057 438.568 282.917 437.628 284.27C432.443 291.744 423.592 291.826 423.221 291.826Z" fill="white"/>
<path d="M413.472 224.527C412.542 224.527 411.628 224.098 411.045 223.285C406.648 217.157 405.723 212.015 405.686 211.798C405.408 210.179 406.497 208.635 408.121 208.357C409.734 208.076 411.281 209.165 411.565 210.789C411.57 210.81 412.351 214.871 415.893 219.806C416.852 221.147 416.548 223.009 415.207 223.966C414.683 224.347 414.071 224.527 413.472 224.527Z" fill="white"/>
<path d="M414.096 225.847C413.911 225.847 413.718 225.831 413.53 225.794C407.007 224.541 394.063 224.528 393.933 224.528C392.288 224.528 390.953 223.193 390.953 221.548C390.953 219.903 392.288 218.567 393.933 218.567C394.487 218.567 407.574 218.583 414.653 219.94C416.269 220.244 417.331 221.807 417.019 223.426C416.748 224.854 415.498 225.847 414.096 225.847Z" fill="white"/>
<path d="M392.298 232.056C390.814 232.056 389.529 230.948 389.341 229.444C389.14 227.809 390.297 226.318 391.935 226.116C393.829 225.878 410.577 223.841 415.995 224.802C417.616 225.086 418.697 226.633 418.408 228.259C418.122 229.878 416.57 230.964 414.951 230.67C411.536 230.069 399.472 231.187 392.671 232.032C392.544 232.045 392.419 232.056 392.298 232.056Z" fill="white"/>
<path d="M396.173 238.799C394.774 238.799 393.524 237.811 393.248 236.383C392.935 234.764 393.995 233.201 395.614 232.891C402.838 231.5 404.764 230.883 408.261 229.754C409.898 229.227 411.938 228.575 414.977 227.691C416.556 227.235 418.214 228.146 418.67 229.725C419.128 231.309 418.217 232.965 416.635 233.421C413.681 234.279 411.771 234.896 410.086 235.434C406.491 236.595 404.316 237.291 396.74 238.751C396.549 238.783 396.358 238.799 396.173 238.799Z" fill="white"/>
<path d="M402.597 243.535C401.172 243.535 399.908 242.51 399.662 241.056C399.386 239.432 400.478 237.89 402.099 237.614C411.755 235.959 413.681 232.358 413.692 232.321C414.208 230.753 415.893 229.905 417.459 230.422C419.022 230.938 419.87 232.626 419.356 234.189C418.972 235.344 416.399 241.215 403.106 243.493C402.933 243.519 402.767 243.535 402.597 243.535Z" fill="white"/>
<path d="M414.093 239.948L411.82 215.645C411.82 215.645 422.481 216.421 422.46 227.592C422.452 231.322 421.376 235.476 414.093 239.948Z" fill="white"/>
<path d="M346.986 160.77C349.677 170.943 343.611 181.375 333.435 184.064C323.257 186.756 312.827 180.692 310.133 170.516L306.75 157.723C304.058 147.548 310.125 137.115 320.3 134.424C330.479 131.729 340.908 137.796 343.603 147.974L346.986 160.77Z" fill="white"/>
<path d="M345.197 154.012C343.75 158.049 341.7 162.047 338.553 164.767C330.881 171.388 319.118 173.173 309.785 169.205L310.132 170.524C312.826 180.7 323.256 186.764 333.434 184.072C343.61 181.383 349.677 170.948 346.985 160.778L345.197 154.012Z" fill="#EB7092"/>
<path d="M310.079 169.816C302.921 165.22 295.191 147.751 306.497 143.929C313.494 141.563 310.675 163.127 310.675 169.223L310.079 169.816Z" fill="#EB7092"/>
<path d="M304.331 145.366C295.679 139.098 306.4 121.364 327.779 121.364C340.991 121.364 340.896 131.487 331.759 136.95C324.177 141.482 312.417 138.828 306.721 146.555L304.331 145.366Z" fill="#EB7092"/>
<path d="M345.193 157.921C342.165 153.327 336.197 144.02 333.876 138.783C332.403 135.456 330.387 129.781 337.053 133.81C342.632 137.183 345.662 149.078 345.138 155.107L345.193 157.921Z" fill="#EB7092"/>
<path d="M194.132 200.324C190.842 203.37 187.22 206.208 184.253 209.601L141.209 299.518L173.254 258.156L207.288 187.804C202.933 192.008 198.577 196.215 194.132 200.324Z" fill="#EF5350"/>
<path d="M168.599 185.563C171.723 181.293 174.727 176.275 178.277 171.864L102.936 135.08L31.4531 142.236L156.704 199.993C160.813 195.31 164.941 190.567 168.599 185.563Z" fill="#EF5350"/>
<path d="M179.357 172.39C175.351 177.402 172.103 183.296 168.259 187.975C164.807 192.176 161.345 196.37 157.803 200.5L214.745 226.756L235.419 199.761L179.357 172.39Z" fill="#FB8394"/>
<path d="M93.612 276.73L115.698 230.597L0 175.213L18.5815 136.405L209.106 24.1982L261.097 49.0875L184.675 208.717L216.164 223.794L194.782 268.457L163.294 253.385L141.21 299.519L93.612 276.73ZM179.319 97.6976L176.391 96.2961L74.4715 155.961L137.08 185.934L179.319 97.6976Z" fill="#B9494B"/>
<path d="M216.158 223.794L235.412 199.758L220.304 233.257L194.066 269.906L216.158 223.794Z" fill="#EF5350"/>
<path d="M208.788 186.464L283.919 21.7686L261.093 49.0897L184.672 208.72C186.804 206.664 207.572 187.68 208.788 186.464Z" fill="#EF5350"/>
<path d="M18.5801 136.404L52.5322 106.85L238.696 0L209.105 24.1978L18.5801 136.404Z" fill="#B4110F"/>
<path d="M209.104 24.1978L261.094 49.087L283.922 21.7684L238.695 0L209.104 24.1978Z" fill="#9D2123"/>
<path d="M145.294 144.496C138.899 139.95 134.496 141.94 131.426 142.417C128.061 142.936 125.574 141.1 125.561 141.092C124.18 140.197 122.331 140.591 121.436 141.972C120.538 143.352 120.935 145.201 122.315 146.096C122.456 146.189 125.057 147.842 129.603 149.034C124.644 153.554 119.589 159.014 119.306 159.318C118.188 160.527 118.262 162.415 119.473 163.531C120.045 164.061 120.771 164.323 121.494 164.323C122.299 164.323 123.097 164 123.685 163.364C123.741 163.303 127.267 159.501 131.201 155.71C127.547 160.283 124.119 165.035 123.494 165.912C122.535 167.25 122.842 169.113 124.18 170.074C124.705 170.453 125.314 170.631 125.916 170.631C126.843 170.631 127.757 170.199 128.34 169.388C130.289 166.665 133.045 162.982 135.675 159.679C134.698 161.613 133.455 163.804 130.97 167.804C130.101 169.205 130.528 171.041 131.927 171.91C132.417 172.215 132.962 172.358 133.498 172.358C134.496 172.358 135.469 171.86 136.035 170.948C137.058 169.301 137.882 167.939 138.573 166.765C138.054 168.061 138.502 169.581 139.715 170.374C140.216 170.702 140.78 170.856 141.339 170.856C142.314 170.856 143.27 170.376 143.84 169.499C146.635 165.2 147.989 161.692 148.571 158.929L148.693 159.022C150.354 150.64 148.336 146.655 145.294 144.496ZM139.323 165.475C140.309 163.743 140.984 162.431 141.615 161.125C141.08 162.397 140.33 163.843 139.323 165.475Z" fill="white"/>
<path d="M53.9725 178.316C44.5335 177.78 30.8345 196.261 44.8487 201.289C32.1617 200.99 29.0569 218.925 40.6895 223.876C20.3225 219.913 22.6908 246.307 32.3259 255.858C25.7957 254.811 19.1965 261.053 20.1847 267.845C21.1808 274.685 23.8936 284.169 40.8166 289.251C57.745 294.332 68.0901 284.816 76.5119 275.843C81.903 286.858 108.554 271.973 105.597 258.793C115.654 262.359 124.664 250.943 124.865 241.827C125.061 232.929 118.83 226.134 112.901 220.356C117.076 216.533 117.868 209.441 116.769 204.023C114.944 195.021 103.674 194.129 103.674 186.965C103.674 184.459 104.156 176.67 102.018 173.25C98.6194 167.806 92.6985 162.42 85.2542 165.08C53.9725 150.245 53.9725 178.316 53.9725 178.316Z" fill="#EB7092"/>
<path d="M72.2119 467.82C63.6099 466.321 62.2218 466.75 53.7232 464.673L34.0449 488.722H110.379L66.0499 476.796L72.2119 467.82Z" fill="#A62325"/>
<path d="M214.341 474.713L209.829 468.789C205.758 471.422 201.519 473.674 196.92 475.272L208.974 488.724H253.703L214.341 474.713Z" fill="#A62325"/>
<path d="M45.6348 467.896C54.1864 469.992 62.7353 472.17 71.3929 473.64L134.428 396.09L123.693 365.277L79.5604 314.389L92.2739 386.508L45.6348 467.896Z" fill="#A62325"/>
<path d="M131.366 293.032C114.072 288.444 90.6239 294.248 73.7988 300.596C73.7988 300.596 84.1201 341.685 90.8941 353.943C110.625 389.63 195.969 478.699 195.969 478.699C200.656 477.104 209.687 470.491 213.819 467.818L131.366 293.032Z" fill="#EB7092"/>
<path d="M71.511 316.668C88.2116 310.397 121.711 299.821 138.901 304.116C138.901 304.116 116.134 250.639 105.802 238.842C98.8269 230.884 60.75 208.477 60.75 237.772C60.75 277.91 71.511 316.668 71.511 316.668Z" fill="#CDE5E8"/>
<path d="M86.3546 235.274C86.132 235.351 85.9095 235.42 85.6764 235.486C80.5899 236.858 75.3551 233.846 73.9801 228.76C72.5443 223.44 72.4781 216.796 72.4728 216.057C72.4489 210.785 76.7062 206.496 81.9754 206.475C87.242 206.451 91.5284 210.7 91.5576 215.964C91.5708 217.821 91.8119 221.583 92.4027 223.782C93.7167 228.646 91.0304 233.64 86.3546 235.274Z" fill="white"/>
<path d="M92.7179 225.84C92.6835 225.157 92.5881 224.468 92.4027 223.782C91.8092 221.583 91.5708 217.821 91.5576 215.964C91.5284 210.703 87.242 206.453 81.9754 206.475C76.7062 206.496 72.4489 210.782 72.4728 216.057C72.4728 216.176 72.4781 216.465 72.486 216.865C77.1857 222.174 84.9346 224.672 92.7179 225.84Z" fill="#B9494B"/>
<path d="M102.052 197.234C105.13 206.71 99.9427 216.886 90.4666 219.97C80.9904 223.043 70.8122 217.858 67.7338 208.382L63.866 196.471C60.7876 186.995 65.9747 176.817 75.4483 173.741C84.9244 170.66 95.1027 175.847 98.181 185.324L102.052 197.234Z" fill="white"/>
<path d="M208.308 187.66C207.929 187.342 207.492 187.149 207.042 187.048C207.476 186.574 207.942 186.063 208.485 185.475C209.601 184.261 209.524 182.375 208.313 181.26C208.162 181.122 208.006 181.003 207.836 180.902C208.668 179.707 208.53 178.057 207.436 177.032C206.589 176.24 205.407 176.049 204.387 176.417C205.746 175.045 206.591 174.091 206.692 173.975C207.781 172.74 207.661 170.854 206.424 169.765C205.19 168.676 203.303 168.795 202.217 170.033C202.148 170.109 195.663 177.419 188.998 181.22C186.105 176.846 182.224 175.312 182.001 175.228C180.473 174.647 178.783 175.416 178.184 176.936C177.588 178.457 178.348 180.182 179.861 180.794C179.993 180.847 182.272 181.814 184.044 184.54C183.797 185.215 183.514 186.174 183.35 187.297C139.468 246.692 81.2815 225.61 78.6456 224.609C73.432 222.611 67.5799 225.199 65.5585 230.41C63.5319 235.632 66.1255 241.505 71.347 243.527C72.057 243.802 86.3017 249.22 106.616 249.22C110.701 249.22 115.035 249.002 119.549 248.475C141.455 245.935 173.852 233.314 199.743 199.953C200.167 199.709 200.768 199.338 201.56 198.76C202.093 198.416 202.631 198.04 203.179 197.584L203.11 197.531C204.641 196.244 206.53 194.418 208.676 191.859C209.736 190.596 209.569 188.715 208.308 187.66Z" fill="white"/>
<path d="M127.527 224.767L125.055 225.3C119.031 226.598 112.792 227.26 106.514 227.26C91.1299 227.26 80.4457 223.379 79.288 222.94C77.913 222.412 76.4745 222.147 75.0174 222.147C70.0529 222.147 65.6896 225.133 63.8935 229.764C62.7411 232.734 62.5371 236.111 64.1001 238.885C69.9231 249.217 85.9136 253.395 106.62 253.395C111.023 253.395 115.442 253.14 119.757 252.645C122.396 252.34 125.167 251.885 127.991 251.289L129.726 250.833C129.726 250.833 127.244 243.304 126.714 235.656C126.513 232.747 127.527 224.767 127.527 224.767Z" fill="#E1F3F6"/>
<path d="M63.4656 206.048C69.7283 202.069 71.8927 194.614 71.2039 187.159C76.6957 190.852 81.0403 188.6 84.4711 182.255C94.8771 196.836 110.735 175.142 89.1098 167.287C71.8132 161.003 54.8583 178.109 59.2904 195.313L63.4656 206.048Z" fill="#EB7092"/>
</svg>
