<svg width="20" height="21" viewBox="0 0 20 21" fill="none" xmlns="http://www.w3.org/2000/svg">
<path d="M3.125 16.2778C2.95921 16.2778 2.80029 16.212 2.68303 16.0948C2.56584 15.9775 2.5 15.8186 2.5 15.6528V4.40283C2.5 4.23705 2.56584 4.07812 2.68303 3.96086C2.80029 3.84367 2.95921 3.77783 3.125 3.77783H6.875V16.2778H3.125Z" fill="black" fill-opacity="0.1"/>
<path d="M6.25 3.77783V16.2778C6.25 16.623 6.52982 16.9028 6.875 16.9028C7.22018 16.9028 7.5 16.623 7.5 16.2778V3.77783C7.5 3.43265 7.22018 3.15283 6.875 3.15283C6.52982 3.15283 6.25 3.43265 6.25 3.77783Z" fill="#1C1C1C"/>
<path fill-rule="evenodd" clip-rule="evenodd" d="M1.875 4.40283C1.875 4.40283 1.875 3.88507 2.24112 3.51895C2.24112 3.51895 2.60723 3.15283 3.125 3.15283H16.875C16.875 3.15283 17.3928 3.15283 17.7589 3.51895C17.7589 3.51895 18.125 3.88506 18.125 4.40283V15.6528C18.125 15.6528 18.125 16.1706 17.7589 16.5367C17.7589 16.5367 17.3928 16.9028 16.875 16.9028H3.125C3.125 16.9028 2.60723 16.9028 2.24112 16.5367C2.24112 16.5367 1.875 16.1706 1.875 15.6528V4.40283ZM3.125 4.40283V15.6528H16.875V4.40283H3.125Z" fill="#1C1C1C"/>
<path d="M2.5 6.90283H4.375C4.72018 6.90283 5 6.62301 5 6.27783C5 5.93265 4.72018 5.65283 4.375 5.65283H2.5C2.15482 5.65283 1.875 5.93265 1.875 6.27783C1.875 6.62301 2.15482 6.90283 2.5 6.90283Z" fill="#1C1C1C"/>
<path d="M2.5 9.40283H4.375C4.72018 9.40283 5 9.12301 5 8.77783C5 8.43265 4.72018 8.15283 4.375 8.15283H2.5C2.15482 8.15283 1.875 8.43265 1.875 8.77783C1.875 9.12301 2.15482 9.40283 2.5 9.40283Z" fill="#1C1C1C"/>
<path d="M2.5 11.9028H4.375C4.72018 11.9028 5 11.623 5 11.2778C5 10.9327 4.72018 10.6528 4.375 10.6528H2.5C2.15482 10.6528 1.875 10.9327 1.875 11.2778C1.875 11.623 2.15482 11.9028 2.5 11.9028Z" fill="#1C1C1C"/>
</svg>
